:SAMPLES-PER-SECOND 30
:FRAME-RANGE 1-744
:FULLY-SPECIFIED
:DEGREES
256
root  -9.62594 39.5042 17.8104 -16.3219 46.6006 -3.44531
RightUpLeg  26.6156 -2.96831 2.75404
RightLeg  2.72955 -5.51249 -2.64976
RightFoot  -13.2003 0.0253267 7.08021
RightToes  5.82063e-011 0 -3.6325e-017
Spine  15.5193 7.03495 18.7617
Spine1  -4.76955 11.7098 -15.3981
HEad  0.485365 16.5498 -9.36899
LeftShoulder1  3.16768 -4.93345 -31.5388
LeftArm  -7.06644 -16.6523 -29.0223
LeftForeArm  -33.0643 -45.4902 -13.2579
LeftHand  -0.728052 -1.392 12.6136
RightShoulder  19.5284 29.4929 51.5042
RightArm  2.02128 26.5241 -0.28542
RightForeArm  -37.1911 25.9214 7.17383
RightHand  4.13022 18.9249 18.8877
LeftUpLeg  -2.59421 0.207872 -1.01458
LeftLeg  -10.0876 2.9997 1.76286
LeftFoot  -5.75853 -0.0784251 2.31997
LeftToes  1.25507e-010 -3.78807e-010 5.71421e-011
257
root  -8.81006 39.2469 18.8824 -16.8771 48.0907 -4.13383
RightUpLeg  27.7486 -2.75238 3.92789
RightLeg  5.15124 -7.0281 -2.86718
RightFoot  -14.7652 0.152225 8.43656
RightToes  5.82063e-011 0 -3.6325e-017
Spine  15.6044 7.10609 19.4177
Spine1  -5.10611 11.8765 -15.8501
HEad  1.0654 15.5922 -8.56011
LeftShoulder1  3.11766 -4.87433 -31.2041
LeftArm  -7.27056 -17.3787 -28.6008
LeftForeArm  -34.2166 -44.9055 -13.0534
LeftHand  -0.727156 -1.13197 13.0796
RightShoulder  20.1378 30.1818 51.9996
RightArm  2.5347 27.1095 -0.411433
RightForeArm  -38.5979 25.0791 7.01494
RightHand  4.06023 18.8041 18.6607
LeftUpLeg  -2.83126 -0.827428 -1.63268
LeftLeg  -10.9085 3.45684 2.56927
LeftFoot  -7.93185 -0.00421319 1.74502
LeftToes  1.25507e-010 -3.78807e-010 5.71421e-011
258
root  -8.01532 39.0097 19.9301 -16.9986 49.8497 -4.16313
RightUpLeg  28.3257 -2.22656 4.77361
RightLeg  8.69426 -8.74765 -3.00574
RightFoot  -16.1132 0.305277 9.93379
RightToes  5.82063e-011 0 -3.6325e-017
Spine  15.9543 7.16445 18.9742
Spine1  -5.18327 11.9515 -16.053
HEad  0.32054 14.3752 -7.86707
LeftShoulder1  3.07333 -4.86478 -30.7122
LeftArm  -7.57906 -18.122 -28.0723
LeftForeArm  -34.7805 -44.9961 -13.1143
LeftHand  -0.726757 -0.894856 13.5461
RightShoulder  20.6191 30.7372 52.357
RightArm  2.09328 27.7601 -0.496288
RightForeArm  -38.9465 24.4096 6.87078
RightHand  3.98703 18.6105 18.4736
LeftUpLeg  -4.33724 -0.532149 -2.08198
LeftLeg  -5.95717 -1.13612 2.30138
LeftFoot  -4.29237 -0.17682 3.29064
LeftToes  1.25507e-010 -3.78807e-010 5.71421e-011
259
root  -7.16301 38.859 20.9606 -16.4087 50.7408 -3.23262
RightUpLeg  28.5547 -0.948709 5.16396
RightLeg  12.9219 -9.63466 -3.40925
RightFoot  -16.3836 0.437013 12.4147
RightToes  5.82063e-011 0 -3.6325e-017
Spine  16.4344 7.74731 17.9785
Spine1  -5.00784 12.4913 -16.1935
HEad  -1.02494 12.8688 -7.41432
LeftShoulder1  3.049 -4.84838 -30.4904
LeftArm  -7.60137 -19.2181 -27.481
LeftForeArm  -36.1211 -44.8004 -13.0829
LeftHand  -0.649752 -0.778112 12.3507
RightShoulder  21.0036 31.1074 52.7452
RightArm  1.18149 28.3243 -0.625307
RightForeArm  -38.9175 23.7046 6.82164
RightHand  4.04388 18.648 18.7091
LeftUpLeg  -4.86086 -1.74796 -3.26259
LeftLeg  -2.82843 -3.8735 3.20034
LeftFoot  3.41985 -0.413304 3.03008
LeftToes  1.25507e-010 -3.78807e-010 5.71421e-011
260
root  -6.30841 38.7931 21.9527 -15.164 51.4036 -1.91177
RightUpLeg  26.6159 0.0562268 4.55037
RightLeg  20.231 -8.08596 -3.4957
RightFoot  -15.0971 0.431801 16.2129
RightToes  5.82063e-011 0 -3.6325e-017
Spine  17.2148 8.1839 16.858
Spine1  -5.61717 12.8139 -16.7452
HEad  -2.11833 11.6187 -6.9481
LeftShoulder1  3.03466 -4.75247 -30.743
LeftArm  -8.07303 -20.0797 -26.6553
LeftForeArm  -36.4232 -44.0703 -12.7889
LeftHand  -0.688626 -0.913694 12.8089
RightShoulder  21.7715 31.4343 54.1215
RightArm  -0.184774 28.7098 -0.72327
RightForeArm  -38.2856 22.7836 6.92589
RightHand  3.91246 18.7595 18.0097
LeftUpLeg  -5.80899 -2.14948 -3.9079
LeftLeg  1.46615 -4.65319 2.89782
LeftFoot  6.21206 -0.183921 0.946643
LeftToes  1.25507e-010 -3.78807e-010 5.71421e-011
261
root  -5.49392 38.8205 22.808 -14.822 53.0991 -1.87581
RightUpLeg  22.631 -2.23688 2.47013
RightLeg  29.5827 -3.43768 -2.34235
RightFoot  -10.22 -0.270938 20.3302
RightToes  5.82063e-011 0 -3.6325e-017
Spine  17.7927 7.94966 16.9819
Spine1  -5.69135 12.7442 -17.7739
HEad  -3.38814 9.7318 -6.9667
LeftShoulder1  3.06856 -4.8613 -30.67
LeftArm  -8.68292 -20.9274 -26.8949
LeftForeArm  -36.0199 -42.9974 -12.3406
LeftHand  -0.769162 -1.16082 13.7638
RightShoulder  22.0483 31.6041 54.5269
RightArm  -1.96763 28.9558 -0.533271
RightForeArm  -37.1234 21.7303 7.19792
RightHand  4.00236 18.9667 18.266
LeftUpLeg  -6.16011 -1.47076 -3.90551
LeftLeg  4.4108 -7.09368 1.68703
LeftFoot  7.48691 -0.236369 1.15062
LeftToes  1.25507e-010 -3.78807e-010 5.71421e-011
262
root  -4.70088 38.9417 23.5908 -14.4893 54.6158 -2.02655
RightUpLeg  17.3281 -3.96096 0.631554
RightLeg  39.6095 -0.280049 -0.52412
RightFoot  -2.75679 -1.55282 20.2396
RightToes  5.82063e-011 0 -3.6325e-017
Spine  17.9323 7.98112 16.6382
Spine1  -5.40079 12.7479 -17.4829
HEad  -4.31467 8.11936 -7.65776
LeftShoulder1  3.1311 -4.94723 -31.0413
LeftArm  -9.23641 -21.5816 -27.0515
LeftForeArm  -36.6452 -42.6031 -12.2088
LeftHand  -0.672712 -1.11333 12.1487
RightShoulder  21.9728 31.9742 53.7819
RightArm  -2.84303 29.2068 -0.41414
RightForeArm  -36.6709 20.7792 7.59132
RightHand  3.97963 18.9577 18.1682
LeftUpLeg  -5.67753 -1.91463 -4.46476
LeftLeg  5.63955 -9.03425 1.5315
LeftFoot  8.91293 -0.884823 4.6463
LeftToes  1.25507e-010 -3.78807e-010 5.71421e-011
